<?xml version="1.0" standalone="no"?>
<!DOCTYPE svg PUBLIC "-//W3C//DTD SVG 1.1//EN" "http://www.w3.org/Graphics/SVG/1.1/DTD/svg11.dtd" >
<svg xmlns="http://www.w3.org/2000/svg" xmlns:xlink="http://www.w3.org/1999/xlink" version="1.1">
<metadata>
Created by FontForge 20161013 at Mon Sep 22 17:36:44 2014
 By ,,,
Copyright (c) 2014 by PYRS Fontlab Ltd. / Made with FontLab. All rights reserved.
</metadata>
<defs>
<font id="Porter-SemiBold" horiz-adv-x="596" >
  <font-face 
    font-family="Porter SemBd"
    font-weight="600"
    font-stretch="normal"
    units-per-em="1000"
    panose-1="0 0 0 0 0 0 0 0 0 0"
    ascent="799"
    descent="-201"
    x-height="794"
    cap-height="801"
    bbox="-50.7561 -398 1319.57 947.568"
    underline-thickness="50"
    underline-position="-200"
    unicode-range="U+0020-201D"
  />
<missing-glyph horiz-adv-x="500" 
d="M125 63h250v674h-250v-674zM63 0v799h375v-799h-375z" />
    <glyph glyph-name=".notdef" horiz-adv-x="500" 
d="M125 63h250v674h-250v-674zM63 0v799h375v-799h-375z" />
    <glyph glyph-name=".null" horiz-adv-x="0" 
 />
    <glyph glyph-name="nonmarkingreturn" horiz-adv-x="333" 
 />
    <glyph glyph-name="space" unicode=" " horiz-adv-x="599" 
 />
    <glyph glyph-name="exclam" unicode="!" horiz-adv-x="133" 
d="M76 -202q-25 2 -43.5 20t-19.5 41q0 19 16 33t37 13q22 -1 38.5 -20t15.5 -43q0 -21 -12 -33t-32 -11zM125 652q0 -14 1.5 -50t0.5 -55q-1 -129 1 -383q0 -40 2 -59q6 -47 -39 -48h-16q-36 -7 -56 13.5t-18 60.5q4 44 -1 189q-6 144 11 405l3 21q2 19 5 28l3 6
q5 10 17 14q24 6 37 8q22 2 38 -10q8 -6 15 -17t5 -18q-11 -47 -9 -105z" />
    <glyph glyph-name="quotedbl" unicode="&#x22;" horiz-adv-x="325" 
d="M152 543l-6 -18q-5 -14 -13 -19q-27 -18 -42 -10q-9 4 -13 14l-2 4q-2 3 -11 23q3 13 8.5 35t8.5 32q18 78 26 117q2 6 2 10q4 16 13.5 21.5t29.5 -7.5l21 -18q16 -14 17.5 -29t-5.5 -33q-7 -23 -18.5 -65t-15.5 -57zM273 628q-2 -7 -6.5 -30t-7.5 -36q-12 -54 -54 -54
q-23 0 -33.5 20t-1.5 48q27 79 47 142q0 2 1.5 6t2.5 6q0 1 10 28q42 -13 59 -28q7 -8 7 -20.5t-4 -18.5q-10 -19 -20 -63z" />
    <glyph glyph-name="numbersign" unicode="#" horiz-adv-x="680" 
d="M414 227l-5 66q-37 -3 -67 -7q-31 -5 -37 -15t0 -54zM629 195q-1 -1 -2.5 -2t-2.5 -1l-9 -7q-5 -1 -11.5 -1h-8.5q-9 -1 -36.5 -5t-49.5 -7q3 -34 6 -79t4 -56q0 -1 1.5 -18.5t1.5 -25.5q1 -26 -12 -43t-32 -17q-21 1 -35.5 19t-15.5 42q0 46 -4 136q0 3 -2 11q0 1 -3 13
l-122 -9q-2 -101 -4 -158q0 -5 0.5 -15.5t0.5 -15.5q-3 -55 -46 -58q-22 -2 -37 12.5t-18 40.5q-8 102 -12 154q0 2 -3 17q-4 0 -7.5 -0.5t-4.5 -0.5q-5 0 -13 -2q-31 -9 -62 13q-3 3 -11 9q-16 12 -9 32q2 5 12 15l1 1q1 1 2 1q3 2 16 7q6 3 17.5 3t14.5 1q24 4 47 8v54
q-24 -3 -46 -5q-31 -3 -44 20l-2 3q-1 3 -5 10t-9 18h9q12 18 29 21q10 1 32 1h29q5 27 5 49q0 17 -2 51q-4 55 4 100q32 5 56 9q28 3 40.5 -7.5t15.5 -41.5q2 -18 2.5 -52.5t1.5 -48.5q0 -9 3 -39q41 0 55 1q11 1 52 9v109q0 24 2 36q2 17 15.5 29t28.5 10
q17 -2 27.5 -14.5t10.5 -31.5q0 -14 -1 -40t-1 -39q0 -16 3 -47q17 -6 33 -4q6 1 18 4t14 3q39 7 55 -20q1 -1 3 -6t3 -8q3 -12 -2 -20t-10 -10.5t-10 -3.5q-12 -2 -79 -7q-12 -3 -17 -4l2 -53q65 8 84 9q24 2 36 -5q20 -15 20 -32q-2 -14 -12 -21z" />
    <glyph glyph-name="dollar" unicode="$" horiz-adv-x="422" 
d="M424 538q-3 -18 -14 -31.5t-24 -12.5q-16 1 -27.5 19.5t-12.5 32.5q0 6 1 9q0 3 0.5 7.5t0.5 6.5q-2 26 -23.5 39.5t-44.5 2.5q-39 -17 -51 -50q-26 -79 8 -139q77 -142 89 -166q47 -100 41 -188q-6 -57 -37 -112q-19 -34 -76 -55q-4 -2 -15.5 -5t-20.5 -6v-53
q-1 -21 -9 -30.5t-23 -8.5q-18 2 -28.5 14t-9.5 31q1 12 6 46q-63 42 -83 57q-24 21 -32 41q-43 107 -41 179q1 43 38 72q20 17 46 9q42 -10 35 -50q-13 -76 27 -150q13 -23 43 -49q25 -18 38 10q11 22 11 47q-1 17 -3.5 33.5t-9 35.5t-11 30t-14.5 34.5t-13 30.5
q-49 116 -63 157q-11 32 -13 82q-4 71 8 125t52 97q25 27 49 39q27 14 25 41q-2 4 -2 7q0 4 -1 12t6 15.5t21 7.5q45 -2 40 -49q-2 -16 -2 -26q7 -7 21 -20.5t21 -19.5q21 -19 35 -39q11 -18 22 -46l18 -48q2 -4 2 -13v-3z" />
    <glyph glyph-name="percent" unicode="%" horiz-adv-x="721" 
d="M612 26q-18 -7 -18 -33q0 -9 -1 -14q8 -48 9 -53t5.5 -10.5t7.5 -5.5q6 0 12.5 4t8.5 9q12 38 10 58q-1 23 -13 35.5t-21 9.5zM154 634q-1 8 -5 17q-16 34 -43 9q-16 -14 -23 -51t3 -56q10 -20 28.5 -22.5t31.5 15.5q5 8 9 22q2 5 4 17q-3 37 -5 49zM442 -198
q-25 -2 -71 -4q-23 -1 -34 11.5t-9 35.5q16 223 12 668q-2 91 -11 146q-6 42 -20.5 51t-64.5 -4l12 -40q9 -25 10 -41q6 -43 -1 -84q-10 -67 -83 -84q-24 -6 -84 -4q-42 1 -68 40q-40 56 -30.5 132t65.5 126q24 23 76 21q88 0 152 23q46 17 94.5 -4t53.5 -76q8 -120 9 -182
q1 -38 2 -107.5t2 -126.5t2 -108q3 -59 15 -114q8 -45 8 -118q0 -14 -1 -55t0 -63q1 -36 -36 -39zM668 -178q-32 -27 -67 -24t-64 35q-73 81 -40 192q5 16 19 46t43 44t60 5q76 -25 89 -87q3 -15 8 -39.5t7 -32.5q-6 -98 -55 -139z" />
    <glyph glyph-name="ampersand" unicode="&#x26;" horiz-adv-x="557" 
d="M290 53q-3 5 -24 53q-26 56 -57 96q-52 -81 -57 -165q-2 -38 25.5 -58.5t63.5 -8.5q14 4 76 32q-16 26 -27 51zM255 680q-15 -49 -4 -134q63 77 49 154q-37 5 -45 -20zM541 -187q-33 -20 -69.5 -12.5t-58.5 38.5q-6 8 -17 26t-17 28q-29 -11 -46 -19q-105 -53 -232 -15
q-94 29 -102 122q-5 70 10 132q37 144 121 253q19 25 9 59q-39 120 -8 217q37 117 121 152q52 22 109 -10.5t65 -88.5q12 -72 -21 -140q-30 -61 -67 -115q-24 -38 -30 -50q-12 -19 -13 -34q-2 -23 23 -89q18 -45 49 -113l6 -12q1 -1 3.5 -4.5t4.5 -6.5l9 -1q25 106 29 122
q7 32 32.5 44t44.5 -6q9 -8 18 -24q4 -7 19 -33q-4 -21 -8 -53t-5 -37q-7 -50 -24 -81q-5 -9 -14 -23.5t-12 -20.5q-9 -17 -9 -26t10 -25q4 -6 33 -43q23 -29 48 -65q19 -27 -11 -46z" />
    <glyph glyph-name="quotesingle" unicode="'" horiz-adv-x="205" 
d="M149 651q-2 -11 -6.5 -33.5t-6.5 -33.5q-13 -54 -55 -53q-23 0 -33.5 20.5t-0.5 47.5q11 32 46 142q2 4 4 12q0 1 0.5 2.5t3.5 8t7 16.5q42 -12 58 -27q7 -7 7 -20t-3 -19q-12 -24 -21 -63z" />
    <glyph glyph-name="parenleft" unicode="(" horiz-adv-x="232" 
d="M128 392q-15 -151 4 -296q1 -7 4.5 -40.5t5 -44t6.5 -38.5t9.5 -43t12 -37t17.5 -40q12 -24 2 -39.5t-28.5 -14.5t-30.5 11q-20 20 -29 31q-16 20 -22 35q-32 86 -62 195q-13 47 -16 98q-2 32 -2 91q-1 223 107 460q4 10 15.5 27.5t16.5 26.5q17 32 58 27q26 -2 34.5 -17
t-4.5 -40q-79 -162 -98 -352z" />
    <glyph glyph-name="parenright" unicode=")" horiz-adv-x="233" 
d="M145 -83q-11 -27 -18.5 -41.5t-22.5 -34.5t-34 -32q-28 -19 -52 -4q-32 23 -12 52q45 65 67 159q14 57 28 177q19 158 0 304q-10 86 -26 188q-2 13 -19 49q-2 3 -3.5 6t-2.5 6t-2 4q-4 11 -5 14q-3 16 11 27q19 13 43.5 10t37.5 -21q11 -13 16 -24q60 -114 75 -265
q2 -17 3.5 -36t3 -41.5t2.5 -35.5q-8 -265 -90 -461z" />
    <glyph glyph-name="asterisk" unicode="*" horiz-adv-x="371" 
d="M313 603q-10 -2 -35.5 -6.5t-45.5 -8.5q17 -21 22 -26q3 -4 12.5 -14.5t13.5 -17.5q9 -16 2 -30.5t-28 -18.5q-37 -9 -64 25q-15 -19 -18 -24q-24 -30 -51 -16q-16 8 -23 26.5t0 35.5q0 1 13 34q-17 -2 -39 -4q-19 -2 -24 -1q-17 5 -19 23q-4 26 28 44l27 9q-10 7 -16 11
q-3 3 -8.5 6.5t-7.5 5.5q-12 11 -18 29.5t4 36.5q11 14 34.5 15.5t38.5 -12.5q13 -13 19 -21q8 -10 19 -22q5 7 7 11q4 6 7 11q2 3 7.5 15t9.5 18q26 40 63 26t31 -52q-4 -16 -8 -24q0 -2 -1.5 -5t-3.5 -9t-4 -11q41 3 50 3q6 1 12.5 -0.5t14.5 -8t9 -18.5q3 -29 -30 -35z
" />
    <glyph glyph-name="plus" unicode="+" horiz-adv-x="624" 
d="M533 207q-2 0 -112 -3q-6 0 -30 -3q-4 -43 -11 -108.5t-10 -92.5q-5 -42 -43 -55q-52 -16 -66 32q-4 15 -4 46v49.5v62v58.5q-17 6 -42 6l-21 -3t-21 -2q-5 0 -15 -2t-16 -3q-46 -5 -53 35q-4 23 7.5 40.5t33.5 21.5q85 14 127 20q2 26 4 60q4 74 7 111q1 21 10.5 30.5
t29.5 12.5q22 2 31 4q33 5 48.5 -9t13.5 -49q-1 -16 -4.5 -50t-4.5 -51q-1 -15 0 -49q48 -3 70 -3q2 0 28 1.5t39 1.5q58 2 60 -44q1 -25 -15.5 -44.5t-40.5 -20.5z" />
    <glyph glyph-name="comma" unicode="," horiz-adv-x="205" 
d="M148 -168q-2 -7 -6.5 -30t-7.5 -36q-12 -54 -54 -54q-23 0 -33.5 20t-1.5 48q27 79 47 142q0 2 2 6t2 6q0 1 10 28q42 -13 59 -28q7 -8 7 -20.5t-4 -18.5q-10 -19 -20 -63z" />
    <glyph glyph-name="hyphen" unicode="-" horiz-adv-x="503" 
d="M431 269q-16 -2 -47 -2q-34 0 -158 7q-29 1 -89 3q-47 1 -73.5 22t-20.5 53q6 30 56 30q64 -10 148 -10h149q42 -1 66 -29t6 -53q-10 -16 -37 -21z" />
    <glyph glyph-name="period" unicode="." horiz-adv-x="359" 
d="M193 -239q-44 0 -71 29.5t-29 79.5q-1 34 22 58.5t58 25.5q42 2 72.5 -28.5t31.5 -76.5q1 -40 -21.5 -63.5t-62.5 -24.5z" />
    <glyph glyph-name="slash" unicode="/" horiz-adv-x="479" 
d="M479 733q-1 -2 -2 -6t-2 -7t-2 -5q-13 -33 -51 -124t-58 -141q-3 -7 -8.5 -20t-10 -23.5t-8.5 -19.5l-144 -363q-8 -19 -23.5 -55t-22.5 -55q-8 -19 -10 -32q-9 -48 -24 -62t-64 -20q-2 -1 -23 -2q-42 49 -17 105q90 198 130 299q23 58 163 431l51 129q19 44 53 40
q55 -9 73 -48q6 -10 0 -21z" />
    <glyph glyph-name="zero" unicode="0" 
d="M411 609q-38 49 -86.5 50t-79.5 -50q-27 -45 -45 -99q-29 -89 -42 -258q22 -185 31 -243q9 -61 54 -104q43 -42 85 -3q31 28 55 68q79 136 95 311q9 103 -3.5 181.5t-63.5 146.5zM492 -53q-38 -69 -99 -113q-55 -39 -129 -35.5t-125 50.5q-59 56 -99 164q-44 118 -41 284
q3 121 75 314q42 112 144 168q75 36 149 13t118 -84q142 -194 106 -416q-18 -113 -38.5 -192.5t-60.5 -152.5z" />
    <glyph glyph-name="one" unicode="1" horiz-adv-x="254" 
d="M224 319q-1 -14 -4 -73.5t-7 -91.5q-14 -117 -38 -265q-4 -25 -22 -54q-25 -41 -75 -36q-46 4 -63.5 22.5t-16.5 61.5q5 170 7 385q3 245 34 458q5 36 27 56t57 20q37 0 95 -13q42 -10 37 -60q-5 -71 -15.5 -208t-15.5 -202z" />
    <glyph glyph-name="two" unicode="2" horiz-adv-x="483" 
d="M386 -202q-28 1 -83.5 0.5t-83.5 0.5q-103 2 -177 8q-28 2 -39.5 31t2.5 63q6 16 17 44.5t20 52t17 44.5q31 88 124 357q26 76 61 184q4 13 11 63q4 33 -19 35q-25 4 -41 -12q-17 -17 -28 -50q-12 -38 -49 -35q-4 0 -24 1.5t-30 3.5q-33 8 -42 38.5t14 56.5q8 9 22 26
t26 30.5t24 24.5q52 50 126 32q135 -34 150 -171q13 -108 -26 -218q-52 -144 -150 -434q-3 -5 -5 -19l-4 -20q78 0 108 1q36 1 113 5q39 2 55 -18t6 -57q-12 -42 -31 -56t-64 -12z" />
    <glyph glyph-name="three" unicode="3" horiz-adv-x="483" 
d="M262 -184q-3 -1 -27.5 -7.5t-37.5 -8.5q-46 -7 -74.5 17t-29.5 71v28q1 35 13.5 46.5t48.5 13.5q119 4 180 109q21 35 9 73q-38 121 -143 136q-63 10 -74 30q-5 11 -5 30q0 9 4 45q5 41 17.5 54t55.5 18q55 6 91 54q22 30 12.5 64t-44.5 46q-121 42 -189 27
q-59 -12 -70 31q-5 22 8.5 53t32.5 35q67 14 114 19.5t107.5 -3.5t110.5 -38q73 -43 98 -104.5t9 -118.5t-60 -105q-12 -14 -40 -38q-22 -18 -42 -34q77 -89 86 -101q37 -49 44 -118.5t-13.5 -134.5t-71 -118.5t-120.5 -70.5z" />
    <glyph glyph-name="four" unicode="4" horiz-adv-x="463" 
d="M443 327q-8 -3 -22 -6q-8 -2 -22 -3q-4 -44 -4 -49q-1 -61 -1.5 -129.5t-1 -152t-0.5 -129.5q-1 -41 -16 -53t-54 -2q-33 7 -42 11q-15 6 -22 13q-7 9 -9 27q-1 5 -1.5 18t-0.5 19q-2 69 -5.5 207.5t-5.5 208.5q0 8 -4 32q-119 7 -134 7q-47 3 -74.5 33.5t-25.5 76.5
q9 139 15 283q2 34 10.5 48t30.5 15q26 2 48 -17.5t23 -46.5q1 -16 -2.5 -44t-3.5 -39q-7 -167 -8 -201q-1 -23 5 -29t30 -8q12 -1 42 -2t44 -2q6 53 6 58q8 166 12 248q2 36 14 49.5t48 18.5q35 5 41 5q22 2 41 -10q25 -15 32 -28t4 -41q-18 -162 -26 -244q-1 -8 -1 -54
q11 -5 21 -9q21 -8 31.5 -18.5t9.5 -31.5q0 -21 -22 -29z" />
    <glyph glyph-name="five" unicode="5" horiz-adv-x="408" 
d="M371 640q-7 -2 -29 -2q-158 -9 -160 -9q-42 -1 -43 -43q-1 -10 -2.5 -33.5t-2.5 -38.5q7 -3 11 -5l12 -6q122 -42 185 -158q110 -204 41 -375q-49 -119 -156 -160q-53 -21 -108 -5q-50 14 -74 22q-26 8 -36.5 21.5t-10.5 39.5l3 57q2 27 16.5 36.5t34.5 -0.5
q30 -16 56.5 -9.5t42.5 21t33 40.5q25 38 50 112q2 7 3 14t1 12.5t-2 14t-3 12.5t-5 13.5t-5.5 11.5t-6.5 12.5t-6 11.5q-43 79 -123 91q-39 5 -52 19.5t-14 53.5q-4 113 0 284q1 35 22.5 58t56.5 28q55 7 165 15q5 0 19.5 0.5t22.5 1.5q3 0 10 1.5t9 1.5q6 1 18 1
q21 -2 33 -23q38 -68 16 -121q-5 -14 -22 -18z" />
    <glyph glyph-name="six" unicode="6" horiz-adv-x="607" 
d="M394 137q-89 -1 -166 -107q-4 -5 -4.5 -17.5t3.5 -17.5q35 -42 43 -51q27 -29 47 -43q36 -25 82 -13.5t66 50.5q26 50 33 99q9 51 -16 76t-88 24zM198 -138q-98 96 -141 232q-7 24 -13 40q-63 177 -40 364q5 37 15.5 110t15.5 109q9 60 69 72q54 12 68 13q28 2 44 -18.5
t6 -45.5q-40 -99 -47 -231q-2 -16 -2 -118v-118q0 -5 2 -21q0 -2 1 -4.5t2 -7.5l2 -10q18 4 34 8q17 3 32 9q85 36 211 -12q21 -8 44 -24t33 -25.5t36 -34.5q27 -27 35 -72t1 -86.5t-23 -71.5q-36 -70 -110 -100.5t-150 -17.5t-125 61z" />
    <glyph glyph-name="seven" unicode="7" horiz-adv-x="412" 
d="M356 477q-2 -10 -66 -350l-48 -264q-8 -38 -43 -47q-56 -15 -92 -18q-32 -3 -49 17.5t-5 47.5q21 51 34 132q2 11 9.5 60t13.5 75q12 55 98 428q5 24 22 96q-110 2 -122 2q-10 0 -20 -3q-4 -1 -11.5 -2t-11.5 -2q-36 -3 -54 17.5t-11 55.5q3 19 8 44q6 20 16 28q9 6 28 8
q28 0 50 -1q23 -1 70.5 0t71.5 0q70 -4 120 -15q34 -8 44 -26.5t2 -52.5q-6 -26 -17.5 -72.5t-20.5 -85t-16 -72.5z" />
    <glyph glyph-name="eight" unicode="8" horiz-adv-x="417" 
d="M230 121q-51 -88 -62 -172q-2 -16 7 -23q23 -19 38 -20q7 0 16.5 7.5t12.5 14.5q35 91 -12 193zM222 711q-52 7 -75 -19t-9 -77q11 -38 35 -75q18 -26 53 -68q47 63 69 117q19 52 0 83.5t-73 38.5zM400 526q-18 -51 -70 -162q-16 -32 0 -69q56 -134 73 -257
q11 -92 -41 -154t-133 -79q-80 -16 -146.5 18t-78.5 114l-6 69q-5 91 67 213q38 65 65 105q15 23 0 52q-38 80 -85 184q-29 63 -18 159q4 26 25 38q146 88 292 7q76 -42 75 -117q-2 -70 -19 -121z" />
    <glyph glyph-name="nine" unicode="9" horiz-adv-x="507" 
d="M341 674q-10 3 -38 8q-79 -18 -84 -20q-82 -25 -109 -118q-14 -50 12 -76t76 -10q114 37 167 170q7 19 2 28.5t-26 17.5zM471 302q-1 -56 1 -116.5t6.5 -142t5.5 -116.5q0 -8 1.5 -24.5t2 -24.5t-0.5 -25q-1 -11 -7.5 -23.5t-14.5 -16.5q-68 -27 -125 -5q-37 15 -35 74
q1 21 4 63.5t4 63.5l3 135t4 135q0 1 6 113q-98 -41 -175 -30q-58 7 -91 36.5t-52 87.5q-30 88 23.5 177t129.5 116q99 37 204 14q67 -14 111 -73.5t30 -134.5q-31 -172 -35 -283z" />
    <glyph glyph-name="colon" unicode=":" horiz-adv-x="359" 
d="M193 -109q-44 0 -71 29.5t-29 79.5q-1 34 22 58.5t58 25.5q42 2 72.5 -28.5t31.5 -76.5q1 -40 -21.5 -63.5t-62.5 -24.5zM189 278q-35 1 -63 40.5t-27 85.5q2 42 34.5 72.5t75.5 30.5q33 1 64 -31t32 -66q2 -52 -33.5 -92t-82.5 -40z" />
    <glyph glyph-name="semicolon" unicode=";" horiz-adv-x="385" 
d="M110 -339q-34 -55 -87 -58q-23 -2 -35 0q-19 5 -29 24q-20 38 1 79q61 121 81 175q61 175 41 296q-5 31 25 47q56 28 86 3.5t29 -100.5q-5 -290 -112 -466zM188 297q-25 -1 -41.5 21.5t-16.5 60.5q0 43 43 43q27 0 47.5 -20t21.5 -47q1 -23 -14.5 -40t-39.5 -18z" />
    <glyph glyph-name="less" unicode="&#x3c;" horiz-adv-x="692" 
d="M580 18q-60 25 -73 32q-36 18 -84 34q-16 5 -86 22q-20 6 -50 20q-25 12 -49 23q-22 10 -47 19q-13 5 -36 13.5t-42 16t-36 15.5q-18 9 -24.5 26t-7.5 50q0 30 15 39q3 2 29.5 21t40.5 28q11 7 64 35t80 47q91 60 191 97q51 18 116 37q13 -46 15 -56q7 -23 8 -44
q3 -45 -29 -56q-6 -2 -62.5 -20.5t-85.5 -29.5q-10 -3 -35 -17q-32 -17 -38 -20q-19 -10 -57.5 -29t-57.5 -29l-2 -2q-2 -1 -4 -3l-9 -9l109 -33q30 -9 89 -26.5t88 -26.5q54 -18 80 -30q14 -7 18 -32q7 -46 7 -81l1 -4q2 -20 -12 -26t-24 -1z" />
    <glyph glyph-name="equal" unicode="=" horiz-adv-x="503" 
d="M478 124q-6 -7 -16 -10q-2 -1 -5 -1.5t-5 -0.5q-16 -4 -25 -6q-52 4 -118 8q-29 2 -86 5.5t-85 4.5q-44 2 -71 30.5t-11 55.5q17 29 64 23q32 -5 72 -7t62.5 -2.5t76 0t66.5 0.5q57 0 84 -33q27 -29 -3 -67zM431 269q-16 -2 -47 -2q-34 0 -158 7q-15 0 -44.5 1t-44.5 2
q-47 1 -73.5 22t-20.5 53q6 30 56 30q64 -10 148 -10h149q42 -1 66 -29t6 -53q-10 -16 -37 -21z" />
    <glyph glyph-name="greater" unicode="&#x3e;" horiz-adv-x="692" 
d="M612 213q-21 -11 -114 -45q-37 -15 -46 -19q-17 -7 -49 -23q-30 -14 -50 -20q-70 -17 -86 -22q-45 -14 -85 -34q-13 -8 -72 -32q-10 -5 -24 1t-12 26q0 2 1 4q0 35 7 81q4 25 18 32q23 11 79 30q33 10 94.5 28t83.5 25l109 33l-9 9q-2 2 -4 3l-2 2q-19 10 -57.5 29
t-58.5 29q-7 4 -21 11.5t-16 8.5q-25 14 -35 17q-28 11 -81 28t-67 22q-34 11 -29 56q1 20 6 40q1 5 6.5 23t10.5 38q49 -14 116 -38q100 -37 191 -97q27 -19 80 -47t64 -35q14 -9 40.5 -28t29.5 -21q15 -10 15 -39q-1 -32 -7.5 -49.5t-25.5 -26.5z" />
    <glyph glyph-name="question" unicode="?" horiz-adv-x="410" 
d="M137 -202q-22 -1 -42 19.5t-22 46.5q-1 19 14.5 35t34.5 16q27 1 46.5 -19t19.5 -49q0 -20 -14 -33.5t-37 -15.5zM323 409q-72 -39 -166 -52q1 -19 3 -47t3 -40q2 -23 -5.5 -35t-29.5 -18q-81 -23 -81 59q0 7 -4 27q-6 25 -6 29q-4 56 0 83q5 38 45 46l60 15l60 15
q105 24 78 128q-1 3 -2.5 9t-2.5 9q-1 7 -7 15q-26 28 -39 29q-41 3 -74.5 -15t-41.5 -60q-9 -46 -58 -46q-20 -1 -30.5 9t-18.5 30q-13 33 -5 70.5t35 59.5q85 67 171 72q75 5 118 -27t72 -108q26 -68 6 -155q-15 -64 -80 -102z" />
    <glyph glyph-name="at" unicode="@" horiz-adv-x="920" 
d="M442 169q26 13 44.5 28t33.5 36.5t23 36.5t24 48q20 44 4 75q-71 -11 -109 -75t-20 -149zM730 83q-63 -8 -110 55q-5 6 -13 20q-1 2 -2.5 4.5t-4 7t-4.5 8.5q-47 -38 -70 -54q-43 -25 -86 -23.5t-79 31.5t-45 77q-15 77 14.5 160t108.5 127q29 16 68 20q29 1 67 -2
q10 -1 29 -5q21 36 67 20q23 -8 31 -21.5t5 -37.5q-7 -67 -23 -201q-5 -45 14 -85q54 0 75 49q42 99 8 245q-16 74 -72 152q-44 62 -116 58q-250 -13 -363 -213q-80 -141 -37 -337q9 -39 15.5 -60t22 -50.5t36.5 -50.5q44 -41 97.5 -60t113 -8t106.5 59q4 4 15 16t18 18
q20 19 53 20t53 -16q16 -14 20.5 -32.5t-6.5 -31.5q-55 -66 -60 -71q-36 -37 -78 -52q-53 -17 -67 -18q-158 -14 -264 42q-138 73 -217 169q-72 89 -44 229q11 58 57 183q42 110 123.5 191.5t199.5 152.5q70 43 155 32q92 -13 111 -16q140 -26 219 -187q84 -170 32 -359
q-12 -44 -70.5 -97t-102.5 -58z" />
    <glyph glyph-name="A" unicode="A" horiz-adv-x="617" 
d="M271 477l-77 -435q58 -8 106 -6q78 0 100 -1q-15 74 -54.5 212t-74.5 230zM591 -183q-20 -15 -63.5 -17.5t-82.5 7.5q-5 30 -5 40q-1 11 -1 35q-2 40 -20 71q-192 -7 -216 -8q-29 -1 -35 -29q-2 -13 -10 -39t-18.5 -35.5t-35.5 -11.5q-5 0 -32 2q-52 5 -65 22t-6 68
q7 49 16.5 102.5t17 93t22 104.5t20.5 92.5t25 103.5l23 92t26 103.5t24 94.5q2 9 17 46q19 48 87 48q44 0 66 -55q56 -136 120 -360q19 -63 58 -188.5t57 -188.5q17 -56 37 -138q8 -31 -26 -55z" />
    <glyph glyph-name="B" unicode="B" horiz-adv-x="504" 
d="M233 259q-7 5 -18 9q-1 0 -21 8q11 -145 11 -179v-88q2 -44 12 -86q57 15 89 51.5t33 72.5q3 137 -106 212zM334 629q-67 58 -161 57l12 -313q39 13 50 18q108 40 125 157q9 52 -26 81zM454 421q-71 -73 -124 -98q-2 -1 -12 -7q-1 0 -2 -1t-4 -3l-6 -4q17 -15 33 -27
q20 -17 33 -24q62 -38 83 -128q12 -52 14 -78q2 -48 -16 -83q-36 -69 -82.5 -108t-117.5 -44q-21 -1 -60 -8.5t-49 -8.5q-15 -3 -35 1q-32 6 -35 40q-7 72 -19 198.5t-22.5 232t-18.5 198.5q-3 28 -16 271q-1 22 7 32.5t29 14.5q153 28 296 3q71 -12 115.5 -55.5
t53.5 -120.5q1 -6 3.5 -22t3.5 -25q2 -91 -52 -146z" />
    <glyph glyph-name="C" unicode="C" horiz-adv-x="503" 
d="M434 -116q-36 -37 -73 -58q-67 -37 -155.5 -25.5t-138.5 66.5q-18 19 -31 55q-51 142 -33 323t58 290q58 159 153 239q31 26 93.5 27.5t93.5 -21.5q36 -26 51.5 -67t8.5 -86q-13 -93 -92 -110q-5 -1 -14.5 -4.5t-11.5 -4.5q-16 -5 -30 1q-38 17 -32 54q3 15 7 43
q0 1 -1 3l-4 4q-32 -20 -46 -59q-28 -81 -43.5 -129t-30 -120.5t-15.5 -135.5q-1 -88 34 -174q17 -41 44.5 -53t70.5 2q64 21 89 55q25 35 85 23q23 -4 31.5 -28.5t-7.5 -41.5q-10 -11 -30.5 -34t-30.5 -34z" />
    <glyph glyph-name="D" unicode="D" horiz-adv-x="565" 
d="M235 592q-2 1 -17 9q-4 1 -16 5q-11 -103 -2.5 -330.5t28.5 -325.5q7 4 14.5 8.5t9.5 6.5q18 12 26 19q47 39 93 118q77 125 23 293q-36 110 -159 197zM499 1q-12 -18 -13 -19q-46 -43 -75.5 -68.5t-76 -55.5t-91.5 -46q-61 -22 -178 -6q-20 3 -32 20.5t-14 43.5
q-8 128 -10 192v151q-22 168 6 449v91q0 30 12.5 41t39.5 6q164 -28 269 -112q5 -4 16.5 -14t18.5 -14q141 -92 181 -277q46 -214 -53 -382z" />
    <glyph glyph-name="E" unicode="E" horiz-adv-x="418" 
d="M408 -146q-43 -36 -81 -37q-95 -4 -237 -18q-43 -5 -67.5 15.5t-24.5 62.5t1 89t2.5 104.5t2.5 88.5q2 196 2 296q2 142 2 214q0 20 -6 56q-9 58 49 64q16 1 46 1.5t40 0.5q23 1 69 3.5t69 3.5q8 0 24 1.5t23.5 2t23.5 -0.5q32 -5 50 -26q20 -22 13.5 -43.5t-35.5 -28.5
q-21 -5 -81 -7q-13 -1 -42.5 -2t-44.5 -2v-256q34 7 54 8q45 2 61 -1q17 -4 21 -15t0 -19.5t-8 -12.5q-22 -24 -56 -24q-18 0 -38 -3q-3 0 -39 -6l-17 -443q100 -2 115 -2q54 2 81 4q26 2 36 -22q11 -29 -8 -46z" />
    <glyph glyph-name="F" unicode="F" horiz-adv-x="357" 
d="M367 697q-18 -1 -38.5 -1.5t-45.5 -1t-38 -0.5q-9 0 -33 -2t-44 -3v-202q12 -2 26 -4h11.5h14h11.5q27 -1 42 -13t13 -30q-1 -18 -18 -28t-43 -8l-58 4q-6 -40 -6 -56q0 -38 -1 -116.5t-1 -125.5t2.5 -113.5t8.5 -122.5q4 -43 -16 -61.5t-65 -13.5q-5 1 -16 1.5t-17 1.5
q-16 2 -28.5 15t-12.5 27q-1 21 -2.5 58.5t-3 69t-3.5 59.5q-11 197 -5 417q2 50 -0.5 141.5t-2.5 120.5q0 28 9 50t19.5 30.5t34.5 4.5q42 -8 92 -8.5t84.5 2.5t93.5 11q20 2 29 2q25 0 40.5 -11t16.5 -29q2 -27 -11.5 -45t-38.5 -20z" />
    <glyph glyph-name="G" unicode="G" horiz-adv-x="582" 
d="M553 168q-26 -139 -137 -301q-40 -58 -125 -67.5t-146 34.5q-69 47 -101 143q-83 250 -15 518q35 138 127 225q68 64 164 78.5t168 -29.5q15 -9 26 -13q54 -16 65 -94q9 -56 -55 -86q-39 -19 -80 22q-51 53 -102 48t-90 -68q-100 -159 -103 -360q-4 -137 36 -227
q24 -54 49 -60t69 32q47 43 66 112q31 118 34 229q0 3 -2 15q-1 4 -4 17q-49 0 -57 1q-35 5 -46 14q-6 4 -12.5 16t-3.5 23q2 8 13.5 14.5t21.5 7.5q24 1 68 -0.5t61 -1.5q42 0 83 3q27 2 44.5 -14t13.5 -41q-19 -130 -30 -190z" />
    <glyph glyph-name="H" unicode="H" 
d="M590 442q-3 -62 -8 -185t-8 -185q-1 -29 -1 -89t-1 -89q-2 -36 -10 -57q-10 -21 -33 -25q-31 -6 -63 2q-34 7 -32 50q2 24 4 144v47q-97 2 -126 1q-19 0 -55.5 -3.5t-44.5 -3.5q-23 -2 -28.5 -7t-7.5 -28q-2 -16 -3.5 -48t-3.5 -48q-5 -44 -15 -71q-14 -38 -63 -47
t-77 22q-11 11 -11 27q-5 162 -4 187q4 134 20 409q1 22 20 181q8 71 11 101q1 25 28 37q6 3 15.5 6.5t12.5 4.5q6 3 18 5q11 2 41 -3q29 -6 40 -19.5t10 -41.5q-2 -34 -6.5 -102.5t-6.5 -103.5q-6 -114 -16 -356q0 -4 3 -41l243 13q4 21 4 32q2 142 6 428q0 14 -1 43t-1 43
q0 47 3 63q1 4 4 16.5t5 19.5q1 6 8 21q38 13 98 7q17 -2 29 -27t11 -51q-1 -47 -3.5 -140t-4.5 -139z" />
    <glyph glyph-name="I" unicode="I" horiz-adv-x="181" 
d="M166 303q0 -1 -3 -382q0 -57 -3 -76q-4 -29 -18 -39t-44 -8q-38 4 -75 42q-7 7 -7 17q-1 4 -1 13v135h-6q-2 272 0 384q1 41 5.5 116t5.5 98q0 9 1 25t2 25q0 31 -3 46q-4 23 5 47q2 6 5.5 12.5t8 14.5t6.5 13q7 15 26 15q40 2 66 -3q24 -6 33.5 -19t8.5 -38
q-1 -49 -6 -202t-7 -236z" />
    <glyph glyph-name="J" unicode="J" horiz-adv-x="491" 
d="M489 189q-9 -165 -59 -261q-47 -87 -126 -117t-167 6q-35 13 -74 68q-78 106 -62 292q2 21 20 38t39 19q30 4 51 1q48 -3 50 -59q4 -69 14 -156q1 -18 17 -46q11 -21 30 -21.5t29 19.5q26 46 34 78q62 266 34 491q-4 33 -5.5 69t-1.5 84.5t-1 69.5q-2 34 31 36
q62 4 91 -2q27 -4 35.5 -16.5t10.5 -42.5q11 -157 12 -198q7 -218 -2 -352z" />
    <glyph glyph-name="K" unicode="K" horiz-adv-x="511" 
d="M370 477q-24 -36 -13 -83q53 -216 65 -280q20 -114 68 -244q4 -16 6 -23q5 -23 -7.5 -37t-36.5 -12q-9 1 -41 8q-35 7 -43 45q-27 137 -85 411q-2 7 -6 14q0 1 -1 3l-2.5 5t-3.5 6q-22 -22 -36 -46q-3 -6 -12.5 -24.5t-15.5 -27.5q-23 -36 -20 -102q2 -44 -5 -231
q0 -31 -39 -37q-27 -5 -61 -2q-25 2 -35 13t-12 38q-29 427 -30 759l-6 99q-2 39 17.5 57.5t59.5 14.5q3 -1 9 -1t9 -1q34 -5 45.5 -20t12.5 -52q1 -92 9 -356l12 -3q5 9 11.5 19.5t8.5 14.5q90 147 102 169q11 20 29.5 57.5t23.5 47.5q24 48 37 71q15 26 54.5 32t61.5 -14
q12 -10 13 -34t-10 -42q-110 -177 -133 -212z" />
    <glyph glyph-name="L" unicode="L" horiz-adv-x="345" 
d="M283 -189q-130 -12 -170 -13q-25 -1 -65 12q-34 11 -36 48q-1 26 -6.5 137.5t-6.5 171.5q-3 123 2 266q3 105 15 308q0 12 4 19q20 33 74 41t80 -24q13 -19 8 -37q-25 -93 -19 -283q2 -63 3 -133.5t1.5 -156.5t1.5 -133q0 -6 6 -112q77 11 95 16q45 12 61.5 -0.5
t15.5 -58.5q-1 -36 -14 -50.5t-50 -17.5z" />
    <glyph glyph-name="M" unicode="M" horiz-adv-x="753" 
d="M727 280q-1 -44 -7 -125t-7 -103q-1 -21 -1 -128q0 -4 1 -12.5t1 -12.5q0 -54 -35 -81.5t-88 -16.5q-28 6 -26 39q2 44 2.5 218t9.5 267q3 29 8 223q0 13 -2 31q-8 -3 -15 -6.5l-9 -4.5q-12 -5 -20 -12q-48 -37 -142 -115q-21 -18 -48.5 -16t-46.5 24q-2 2 -73 94
q-3 6 -20 13q-8 -107 -9 -127q-19 -293 -31 -455q-1 -18 -12 -74q-5 -22 -16 -30t-35 -6q-11 1 -32.5 1.5t-32.5 1.5q-27 3 -35.5 15t-7.5 37q1 40 1.5 85t1 99t0.5 84q3 312 44 569q4 25 13.5 34t34.5 11q62 5 100 -15.5t62 -72.5q17 -36 101 -183q42 36 61 54
q106 100 158 150q25 23 81.5 22t78.5 -24q26 -26 17 -87q-20 -149 -25 -365z" />
    <glyph glyph-name="N" unicode="N" horiz-adv-x="676" 
d="M671 616q-2 -47 -8.5 -194.5t-11.5 -228.5q-2 -28 -14 -157q-8 -107 -14 -163q-3 -36 -14 -49t-45 -21q-27 -5 -34 -5q-43 -2 -43 41q0 36 1 76t2.5 88.5t2.5 75.5q1 4 1 12t1 12q8 90 -44 155q-123 150 -193 280q-1 4 -10 15q0 1 -11 13l-9 -2q-1 -16 -7.5 -87.5
t-8.5 -107.5q-3 -26 -6.5 -79t-5.5 -79q-1 -10 -30 -301q-4 -30 -11 -43q-12 -25 -28 -26q-64 -4 -105 1q-15 2 -23 13.5t-4 28.5q3 11 3 47q0 9 1 78t1 83.5t1 76.5t1.5 83t2 76.5t3 83t3.5 76.5t4.5 83.5t6 76.5t7.5 81q1 3 1 9v8v4q0 5 4 13q16 27 33 32q59 18 128 -10
q37 -15 36 -53q-2 -21 12 -38q23 -31 66.5 -86.5t59.5 -76.5q26 -33 31 -43q14 -31 43 -65q48 -56 51 -59q2 5 4 7q0 1 1 3t1 3q4 56 12 167.5t12 167.5q2 34 15.5 48.5t45.5 16.5q4 0 12 1t12 1q36 0 51 -15.5t14 -51.5q-1 -18 -3.5 -51.5t-3.5 -44.5z" />
    <glyph glyph-name="O" unicode="O" horiz-adv-x="671" 
d="M450 618q-13 37 -42.5 42t-57.5 -24q-27 -28 -50 -68q-74 -129 -72 -323v-60q5 -110 38 -190q18 -46 58.5 -52t66.5 34q55 82 69 138q43 175 25 358q-8 75 -35 145zM583 17q-38 -104 -126 -180q-39 -34 -110 -38t-116 23q-6 4 -8 6q-6 4 -8 5q-92 45 -134 125.5
t-52 192.5q-10 104 -11 195q-2 131 82 318q10 23 38 56q5 6 22 25.5t28 33.5q19 3 54 9t60 9.5t48 4.5q81 4 139 -71q6 -9 26.5 -34t33.5 -43.5t23 -36.5q10 -17 17.5 -38t12 -35.5t9.5 -41.5t6.5 -37t5 -42.5t4.5 -38.5v-86q2 -159 -44 -281z" />
    <glyph glyph-name="P" unicode="P" horiz-adv-x="536" 
d="M305 624q-28 22 -43 31q-20 13 -47 14q-10 -60 -18 -211t-6 -243q25 15 36 20q25 15 33 21q77 68 99 99q48 66 34.5 138.5t-88.5 130.5zM454 280q-92 -60 -130 -81q-69 -38 -142 -60q-9 -43 -11 -108q0 -12 1 -49t0 -57q0 -41 -3 -61q-7 -54 -62 -63q-10 -2 -14 -3
q-58 -2 -77 16.5t-18 75.5v180t2 225q1 62 8 177.5t8 138.5q3 65 3 131q-1 35 19 50.5t52 6.5q15 -5 42.5 -12t34.5 -9q30 -9 90 -26.5t90 -26.5q26 -8 51.5 -27.5t37 -31.5t38.5 -44q95 -111 49 -248q-21 -63 -69 -94z" />
    <glyph glyph-name="Q" unicode="Q" horiz-adv-x="531" 
d="M294 665q-29 14 -43 -4l-30 -39q-15 -22 -19 -39q-13 -55 -28 -193q-20 -208 21 -368q15 -61 45 -101q20 11 29.5 22.5t19.5 33.5q2 4 5.5 12t5.5 12q11 23 -5 45q-8 9 -51 68q-8 11 -11 23.5t5.5 24t29.5 12.5q12 1 36 -5q22 -7 36 -11q10 55 14 76q29 157 15 304
q-10 92 -75 127zM495 -200q-44 -5 -64 24q-6 9 -20 29t-23 34q-8 -6 -14 -11.5t-11.5 -10.5t-7.5 -7q-18 -16 -34 -27q-50 -37 -120.5 -33t-106.5 47q-27 33 -39 71q-105 350 -16 665q39 133 114 198q20 18 35 20q87 11 161 -21t114 -117q119 -253 34 -569q-7 -27 -25 -66
q-18 -38 -31 -66l89 -121q-9 -36 -35 -39z" />
    <glyph glyph-name="R" unicode="R" horiz-adv-x="481" 
d="M209 710l-14 -328q70 13 109 59t42 95q9 134 -137 174zM364 352q-12 -9 -18 -15q-7 -5 -8 -10q-3 -6 3 -31q28 -111 112 -445q9 -35 -24 -47q-37 -14 -106 12q-18 7 -16 26q-1 2 -1 5q-9 43 -31 160l-36 213q-6 38 -26 56q-19 -1 -26 -9.5t-11 -28.5q-13 -66 -9 -229
q1 -30 -8 -107q-5 -37 -43 -35q-51 2 -76 5q-29 5 -35 43q-10 57 -6 140q1 15 5 64t5 75q0 4 1 18.5t0 21.5q-6 24 -4 96t3.5 96t8 95.5t8.5 95.5q6 70 6 104q2 49 22 66.5t69 13.5q16 -1 48 -2.5t57.5 -4t47.5 -6.5q78 -14 139 -62q79 -64 66 -198q-4 -53 -33.5 -92
t-83.5 -84z" />
    <glyph glyph-name="S" unicode="S" horiz-adv-x="502" 
d="M433 537q-29 -17 -55 2q-27 19 -15 51q16 39 3 83q-12 42 -50 24q-35 -17 -43 -48q-3 -14 -7.5 -43.5t-6.5 -44.5q14 -67 16 -72q13 -36 41 -103t34 -81q84 -209 92 -232q41 -119 -47 -214q-56 -63 -166 -61q-98 1 -159 104q-64 112 -49 238q7 56 42 89q18 16 41.5 19.5
t44.5 -6.5q16 -8 19 -23t-9 -26q-35 -30 -35 -87q-2 -78 26 -124q26 -40 75 -40q43 1 58 47q14 34 14 70q0 83 -47 167q-36 65 -115 222q-8 16 -28 64q-22 64 -2 139.5t63 113.5q59 50 139 33q128 -29 168 -131q13 -31 -1 -72.5t-41 -57.5z" />
    <glyph glyph-name="T" unicode="T" horiz-adv-x="454" 
d="M433 699q-14 -9 -51 -18q-8 -1 -25 -1h-12.5t-12.5 -1q-22 -1 -28 -7.5t-7 -29.5q-1 -26 -4 -71.5t-5 -83.5t-3 -72l-15 -294q-1 -15 -5 -41.5t-5 -35.5q-1 -6 -18 -185q-4 -45 -33 -52q-30 -8 -46 -9q-24 -2 -47 14q-15 11 -13 31v11q6 112 9 184q9 255 27 515
q1 18 5.5 52t5.5 47q2 23 -4 30t-28 10q-43 8 -80 11q-36 3 -40 34q-2 14 13.5 37t28.5 25q36 4 55 3l213 -12q34 -1 81 4q47 7 63 -24q7 -13 1 -38t-20 -33z" />
    <glyph glyph-name="U" unicode="U" horiz-adv-x="574" 
d="M557 155q-24 -142 -110 -257q-58 -76 -138.5 -94.5t-168.5 22.5q-44 19 -70 77q-34 71 -58 192q-14 76 -14 161q0 28 5 160q2 34 3.5 102.5t2.5 103.5q5 74 16 140q1 11 10 18.5t15 8.5q31 12 72 8q16 -1 79 -13q4 -17 5 -18q1 -3 1 -12q0 -3 -0.5 -7.5t-0.5 -6.5
q-2 -23 -8.5 -81.5t-9.5 -101t-3 -82.5q0 -10 0.5 -47.5t1 -50t1 -47t1.5 -50.5t2.5 -46.5t4 -50t5.5 -46t7 -50t9 -46.5q2 -11 33 -111q54 27 80 61.5t42 84.5q44 137 49 341q1 33 0.5 115.5t-0.5 115.5q0 50 9 100q7 32 21 44t41 10q30 -3 53 -23t24 -47q7 -193 7 -231
q0 -231 -19 -346z" />
    <glyph glyph-name="V" unicode="V" horiz-adv-x="694" 
d="M586 597q-32 -85 -72 -298q-6 -34 -27.5 -98t-24.5 -74q-4 -14 -11.5 -41.5t-11.5 -39.5q-47 -173 -56 -198q-11 -31 -29.5 -41t-55.5 -9q-31 1 -42 28q-4 10 -22.5 56.5t-26.5 72.5q-7 22 -35 117t-47 145q-59 158 -97 346q-5 24 -28 169q-7 6 -11 13t0.5 15t19.5 14
q68 26 96 28q28 1 41.5 -12t18.5 -44q37 -219 46 -266q5 -25 19.5 -71t18.5 -61q10 -38 29 -108.5t27 -100.5q1 -3 6 -12q1 -1 10 -17l42 192q42 197 68 310q18 83 36 138q3 9 14 17.5t22 10.5q41 9 89 7q22 -1 31 -18t1 -44q-29 -101 -38 -126z" />
    <glyph glyph-name="W" unicode="W" horiz-adv-x="1018" 
d="M887 387q-98 -246 -159 -387q-11 -26 -25.5 -54t-33.5 -62.5t-28 -52.5q-19 -34 -47 -33q-32 3 -44 37q-25 63 -42 124q-14 46 -37 130.5t-31 113.5q-2 4 -4 7l-5 9q-86 -161 -119 -222q-28 -53 -48 -79q-24 -31 -52 -26t-39 43q-26 86 -49 188q-36 165 -73 353
q-10 49 -26 138.5t-21 115.5q-2 6 -2 9q-6 32 5 45t43 15q57 3 58 3q35 1 48.5 -10t17.5 -45q3 -22 9 -66.5t10 -67.5q19 -122 59 -366q5 -32 20 -96q18 21 25 34q2 5 8 18t9 20q42 84 50 101q20 43 88 66q55 20 74 -39q13 -38 37 -116t37 -116q4 -8 11 -25q12 22 13 25
q8 13 12 23q26 74 79 220t80 220q11 30 15 61q9 47 40.5 64t75.5 -3q4 -2 11 -5t11 -4q27 -11 33.5 -27.5t-4.5 -44.5q-14 -37 -44 -116t-46 -120z" />
    <glyph glyph-name="X" unicode="X" horiz-adv-x="654" 
d="M448 364q-62 -107 -64 -110q-8 -15 2 -38q15 -42 52 -142.5t56 -154.5q12 -33 10 -80q-3 -40 -50 -40q-7 0 -21 -0.5t-21 -0.5q-31 1 -46.5 14t-24.5 44q-4 14 -61 192l-11 1q-30 -56 -36 -68q-3 -5 -21 -37t-25 -50q-23 -58 -92 -66q-25 -3 -52 -3q-38 0 -39 36
q0 7 -6 32q17 32 44 84.5t31 59.5q43 79 80 134q62 91 24 216q-34 112 -102 334q-8 22 -0.5 41.5t29.5 25.5q27 8 84 8q20 0 28 -19q0 -1 1.5 -6t2.5 -8q34 -128 46 -169q10 -33 32 -101l9 -1q28 40 32 47q101 165 120 203q37 76 116 55q6 -2 20.5 -4t21.5 -5
q29 -12 37 -35.5t-8 -50.5q-38 -66 -109 -186.5t-89 -151.5z" />
    <glyph glyph-name="Y" unicode="Y" horiz-adv-x="641" 
d="M635 675q-5 -8 -17 -24q-171 -252 -215 -319q-38 -58 -41 -118q-2 -78 -18 -307q-1 -18 -1 -54q0 -60 -59 -54q-44 3 -87 12q-41 7 -38 53q14 224 22 336q4 69 13 102q10 42 -17 85q-106 168 -154 289q-12 27 -22 65q-9 36 26 52q43 18 92 1q15 -5 31 -36q12 -25 45 -99
t53 -114q11 -25 26 -49q15 -22 39 -43q12 15 14 17q1 2 5 7.5t6 8.5q17 29 68.5 121.5t80.5 142.5q12 24 32 29q62 14 96 12q29 -2 40.5 -31.5t-4.5 -59.5q-4 -9 -16 -25z" />
    <glyph glyph-name="Z" unicode="Z" 
d="M492 -202q-88 6 -266 12q-45 2 -81 -1q-2 0 -24.5 -1.5t-33.5 -1.5q-33 2 -58 16q-39 25 -28 61q2 5 4 17t5 18q94 229 118 284q22 51 167 375l48 106h-105q-44 -3 -69 30q-20 25 -1 70q10 25 51 17q29 -5 114.5 -20t132.5 -24q37 -7 46 -26t-6 -53
q-15 -38 -110.5 -243.5t-128.5 -322.5q-14 -50 -57 -174q137 -9 143 -9q31 -1 92 -2.5t92 -3.5q30 -1 41 -15t20 -51q-34 -61 -106 -58z" />
    <glyph glyph-name="bracketleft" unicode="[" horiz-adv-x="252" 
d="M249 -160l-10 -10q-8 -8 -14 -13q-27 -23 -70 -18q-4 1 -11.5 2t-11.5 2q-7 1 -30 3.5t-35 4.5q-27 5 -38.5 17t-12.5 40q-2 42 -6 119.5t-6 127.5t-4 116.5t-1.5 128t3.5 119.5q1 18 4 65.5t4 73.5v173q66 11 78 11q1 0 73 -6q34 -3 35 -32q1 -14 -9.5 -22.5t-28.5 -9.5
h-16q-15 -103 -4.5 -416t32.5 -404q9 1 19 1q14 0 21 -1q38 -6 44 -45q3 -16 -5 -27z" />
    <glyph glyph-name="backslash" unicode="\" horiz-adv-x="470" 
d="M399 -200q-59 -5 -81 8t-40 67q-21 66 -128 429q-10 34 -27 95t-31.5 111.5t-28.5 94.5q-9 29 -66 153q49 25 68 34q42 18 74.5 2t54.5 -63q34 -72 47 -109q18 -48 27 -98q17 -93 22 -111q13 -59 35 -107q16 -35 32 -91q20 -73 28 -94q16 -45 64 -156q26 -58 22 -90
q-6 -68 -72 -75z" />
    <glyph glyph-name="bracketright" unicode="]" horiz-adv-x="239" 
d="M240 -159q-5 -36 -42 -36q-12 -1 -37.5 -4t-38.5 -3q-43 -2 -64 30q-14 20 -9 35t26 22q7 2 59 13l-27 812q-48 4 -53 4q-42 3 -53 43q-3 6 -3 12q-1 14 7.5 21.5t17.5 7.5q63 4 140 4q33 -1 38 -48q4 -48 8 -144q18 -523 18 -535q2 -39 7 -110t6 -92q2 -17 0 -32z" />
    <glyph glyph-name="asciicircum" unicode="^" horiz-adv-x="692" 
d="M592 412l1 -3q-52 -8 -68 -9q-44 -1 -55 21q-32 72 -44 97q-6 12 -17 23q-2 3 -6 7.5t-7 8.5t-5 8q-9 13 -26.5 38.5t-26.5 38.5q-1 0 -6 4l-1 1q-1 1 -3.5 2t-4.5 3l-34 -71q-8 -17 -17.5 -36t-21 -42.5t-17.5 -36.5q-15 -28 -31 -51q-9 -11 -24 -11h-7q-35 -4 -79 -4
q-7 0 -20 -2q-2 0 -62 -9l49 31l6 4l3 7l26 -20l-20 -13l-50 -31q9 14 16.5 25.5t11 17.5t6.5 9q4 6 7.5 11.5t5 8t3.5 5t3 4.5q2 3 5.5 7.5t6.5 8.5l6 8q20 24 35 54q3 5 24 56q5 13 20 32q2 3 11 14.5t13 17.5q7 10 19 30q11 16 22 37q16 24 25 37q17 19 75 19
q28 0 38 -10l23 -23q15 -15 22 -23q13 -16 37 -48q32 -40 40 -48q55 -58 90 -126q7 -13 13 -26v-1l-2 -3q2 -34 -8 -49z" />
    <glyph glyph-name="underscore" unicode="_" horiz-adv-x="1360" 
d="M1303 -195q-3 -5 -13 -17q-18 -25 -76 -19q-45 6 -168 10q-112 3 -225 3q-107 -1 -326 -7q-17 0 -88.5 -2.5t-102 -2.5t-84 0.5t-97.5 4.5q-30 1 -63 17q-52 24 -37 61q7 14 29 21.5t49 6.5q268 -6 641 13q329 15 512 8q41 -1 59 -35q17 -28 -10 -62z" />
    <glyph glyph-name="grave" unicode="`" horiz-adv-x="298" 
d="M179 617l-120 90q-5 2 -11 7l-2 1q-1 1 -6.5 5.5t-13.5 11.5q24 35 44 47q15 10 38 -8q18 -18 53 -40l60 -33q48 -30 33 -69q-7 -21 -29.5 -25t-45.5 13z" />
    <glyph glyph-name="a" unicode="a" horiz-adv-x="617" 
d="M271 477l-77 -435q58 -8 106 -6q78 0 100 -1q-15 74 -54.5 212t-74.5 230zM591 -183q-20 -15 -63.5 -17.5t-82.5 7.5q-5 30 -5 40q-1 11 -1 35q-2 40 -20 71q-192 -7 -216 -8q-29 -1 -35 -29q-2 -13 -10 -39t-18.5 -35.5t-35.5 -11.5q-5 0 -32 2q-52 5 -65 22t-6 68
q7 49 16.5 102.5t17 93t22 104.5t20.5 92.5t25 103.5l23 92t26 103.5t24 94.5q2 9 17 46q19 48 87 48q44 0 66 -55q56 -136 120 -360q19 -63 58 -188.5t57 -188.5q17 -56 37 -138q8 -31 -26 -55z" />
    <glyph glyph-name="b" unicode="b" horiz-adv-x="504" 
d="M233 259q-7 5 -18 9q-1 0 -21 8q11 -145 11 -179v-88q2 -44 12 -86q57 15 89 51.5t33 72.5q3 137 -106 212zM334 629q-67 58 -161 57l12 -313q39 13 50 18q108 40 125 157q9 52 -26 81zM454 421q-71 -73 -124 -98q-2 -1 -12 -7q-1 0 -2 -1t-4 -3l-6 -4q17 -15 33 -27
q20 -17 33 -24q62 -38 83 -128q12 -52 14 -78q2 -48 -16 -83q-36 -69 -82.5 -108t-117.5 -44q-21 -1 -60 -8.5t-49 -8.5q-15 -3 -35 1q-32 6 -35 40q-7 72 -19 198.5t-22.5 232t-18.5 198.5q-3 28 -16 271q-1 22 7 32.5t29 14.5q153 28 296 3q71 -12 115.5 -55.5
t53.5 -120.5q1 -6 3.5 -22t3.5 -25q2 -91 -52 -146z" />
    <glyph glyph-name="c" unicode="c" horiz-adv-x="503" 
d="M434 -116q-36 -37 -73 -58q-67 -37 -155.5 -25.5t-138.5 66.5q-18 19 -31 55q-51 142 -33 323t58 290q58 159 153 239q31 26 93.5 27.5t93.5 -21.5q36 -26 51.5 -67t8.5 -86q-13 -93 -92 -110q-5 -1 -14.5 -4.5t-11.5 -4.5q-16 -5 -30 1q-38 17 -32 54q3 15 7 43
q0 1 -1 3l-4 4q-32 -20 -46 -59q-28 -81 -43.5 -129t-30 -120.5t-15.5 -135.5q-1 -88 34 -174q17 -41 44.5 -53t70.5 2q64 21 89 55q25 35 85 23q23 -4 31.5 -28.5t-7.5 -41.5q-10 -11 -30.5 -34t-30.5 -34z" />
    <glyph glyph-name="d" unicode="d" horiz-adv-x="565" 
d="M235 592q-2 1 -17 9q-4 1 -16 5q-11 -103 -2.5 -330.5t28.5 -325.5q7 4 14.5 8.5t9.5 6.5q18 12 26 19q47 39 93 118q77 125 23 293q-36 110 -159 197zM499 1q-12 -18 -13 -19q-46 -43 -75.5 -68.5t-76 -55.5t-91.5 -46q-61 -22 -178 -6q-20 3 -32 20.5t-14 43.5
q-8 128 -10 192v151q-22 168 6 449v91q0 30 12.5 41t39.5 6q164 -28 269 -112q5 -4 16.5 -14t18.5 -14q141 -92 181 -277q46 -214 -53 -382z" />
    <glyph glyph-name="e" unicode="e" horiz-adv-x="418" 
d="M408 -146q-43 -36 -81 -37q-95 -4 -237 -18q-43 -5 -67.5 15.5t-24.5 62.5t1 89t2.5 104.5t2.5 88.5q2 196 2 296q2 142 2 214q0 20 -6 56q-9 58 49 64q16 1 46 1.5t40 0.5q23 1 69 3.5t69 3.5q8 0 24 1.5t23.5 2t23.5 -0.5q32 -5 50 -26q20 -22 13.5 -43.5t-35.5 -28.5
q-21 -5 -81 -7q-13 -1 -42.5 -2t-44.5 -2v-256q34 7 54 8q45 2 61 -1q17 -4 21 -15t0 -19.5t-8 -12.5q-22 -24 -56 -24q-18 0 -38 -3q-3 0 -39 -6l-17 -443q100 -2 115 -2q54 2 81 4q26 2 36 -22q11 -29 -8 -46z" />
    <glyph glyph-name="f" unicode="f" horiz-adv-x="330" 
d="M367 697q-18 -1 -38.5 -1.5t-45.5 -1t-38 -0.5q-9 0 -33 -2t-44 -3v-202q12 -2 26 -4h11.5h14h11.5q27 -1 42 -13t13 -30q-1 -18 -18 -28t-43 -8l-58 4q-6 -40 -6 -56q0 -38 -1 -116.5t-1 -125.5t2.5 -113.5t8.5 -122.5q4 -43 -16 -61.5t-65 -13.5q-5 1 -16 1.5t-17 1.5
q-16 2 -28.5 15t-12.5 27q-1 21 -2.5 58.5t-3 69t-3.5 59.5q-11 197 -5 417q2 50 -0.5 141.5t-2.5 120.5q0 28 9 50t19.5 30.5t34.5 4.5q42 -8 92 -8.5t84.5 2.5t93.5 11q20 2 29 2q25 0 40.5 -11t16.5 -29q2 -27 -11.5 -45t-38.5 -20z" />
    <glyph glyph-name="g" unicode="g" horiz-adv-x="582" 
d="M553 168q-26 -139 -137 -301q-40 -58 -125 -67.5t-146 34.5q-69 47 -101 143q-83 250 -15 518q35 138 127 225q68 64 164 78.5t168 -29.5q15 -9 26 -13q54 -16 65 -94q9 -56 -55 -86q-39 -19 -80 22q-51 53 -102 48t-90 -68q-100 -159 -103 -360q-4 -137 36 -227
q24 -54 49 -60t69 32q47 43 66 112q31 118 34 229q0 3 -2 15q-1 4 -4 17q-49 0 -57 1q-35 5 -46 14q-6 4 -12.5 16t-3.5 23q2 8 13.5 14.5t21.5 7.5q24 1 68 -0.5t61 -1.5q42 0 83 3q27 2 44.5 -14t13.5 -41q-19 -130 -30 -190z" />
    <glyph glyph-name="h" unicode="h" 
d="M590 442q-3 -62 -8 -185t-8 -185q-1 -29 -1 -89t-1 -89q-2 -36 -10 -57q-10 -21 -33 -25q-31 -6 -63 2q-34 7 -32 50q2 24 4 144v47q-97 2 -126 1q-19 0 -55.5 -3.5t-44.5 -3.5q-23 -2 -28.5 -7t-7.5 -28q-2 -16 -3.5 -48t-3.5 -48q-5 -44 -15 -71q-14 -38 -63 -47
t-77 22q-11 11 -11 27q-5 162 -4 187q4 134 20 409q1 22 20 181q8 71 11 101q1 25 28 37q6 3 15.5 6.5t12.5 4.5q6 3 18 5q11 2 41 -3q29 -6 40 -19.5t10 -41.5q-2 -34 -6.5 -102.5t-6.5 -103.5q-6 -124 -16 -356q0 -4 3 -41l243 13q4 21 4 32q2 142 6 428q0 14 -1 43t-1 43
q0 47 3 63q1 4 4 16.5t5 19.5q1 6 8 21q38 13 98 7q17 -2 29 -27t11 -51q-1 -47 -3.5 -140t-4.5 -139z" />
    <glyph glyph-name="i" unicode="i" horiz-adv-x="200" 
d="M166 303q0 -1 -3 -382q0 -57 -3 -76q-4 -29 -18 -39t-44 -8q-38 4 -75 42q-7 7 -7 17q-1 4 -1 13v135h-6q-2 272 0 384q1 41 5.5 116t5.5 98q0 9 1 25t2 25q0 31 -3 46q-4 23 5 47q2 6 5.5 12.5t8 14.5t6.5 13q7 15 26 15q40 2 66 -3q24 -6 33.5 -19t8.5 -38
q-1 -49 -6 -202t-7 -236z" />
    <glyph glyph-name="j" unicode="j" horiz-adv-x="491" 
d="M489 189q-9 -165 -59 -261q-47 -87 -126 -117t-167 6q-35 13 -74 68q-78 106 -62 292q2 21 20 38t39 19q30 4 51 1q48 -3 50 -59q4 -69 14 -156q1 -18 17 -46q11 -21 30 -21.5t29 19.5q26 46 34 78q62 266 34 491q-4 33 -5.5 69t-1.5 84.5t-1 69.5q-2 34 31 36
q62 4 91 -2q27 -4 35.5 -16.5t10.5 -42.5q11 -157 12 -198q7 -218 -2 -352z" />
    <glyph glyph-name="k" unicode="k" horiz-adv-x="511" 
d="M370 477q-24 -36 -13 -83q53 -216 65 -280q20 -114 68 -244q4 -16 6 -23q5 -23 -7.5 -37t-36.5 -12q-9 1 -41 8q-35 7 -43 45q-27 137 -85 411q-2 7 -6 14q0 1 -1 3l-2.5 5t-3.5 6q-22 -22 -36 -46q-3 -6 -12.5 -24.5t-15.5 -27.5q-23 -36 -20 -102q2 -44 -5 -231
q0 -31 -39 -37q-27 -5 -61 -2q-25 2 -35 13t-12 38q-29 427 -30 759l-6 99q-2 39 17.5 57.5t59.5 14.5q3 -1 9 -1t9 -1q34 -5 45.5 -20t12.5 -52q1 -92 9 -356l12 -3q5 9 11.5 19.5t8.5 14.5q90 147 102 169q11 20 29.5 57.5t23.5 47.5q24 48 37 71q15 26 54.5 32t61.5 -14
q12 -10 13 -34t-10 -42q-110 -177 -133 -212z" />
    <glyph glyph-name="l" unicode="l" horiz-adv-x="395" 
d="M303 -189q-130 -12 -170 -13q-25 -1 -65 12q-34 11 -36 48q-1 26 -6.5 137.5t-6.5 171.5q-3 123 2 266q3 105 15 308q0 12 4 19q19 33 73.5 41t80.5 -24q13 -19 8 -37q-25 -93 -19 -283q2 -63 3 -133.5t1.5 -156.5t1.5 -133q0 -6 6 -112q77 11 95 16q45 12 61.5 -0.5
t15.5 -58.5q-1 -36 -14 -50.5t-50 -17.5z" />
    <glyph glyph-name="m" unicode="m" horiz-adv-x="753" 
d="M727 280q-1 -44 -7 -125t-7 -103q-1 -21 -1 -128q0 -4 1 -12.5t1 -12.5q0 -54 -35 -81.5t-88 -16.5q-28 6 -26 39q2 44 2.5 218t9.5 267q3 29 8 223q0 13 -2 31q-8 -3 -15 -6.5l-9 -4.5q-12 -5 -20 -12q-48 -37 -142 -115q-21 -18 -48.5 -16t-46.5 24q-2 2 -73 94
q-3 6 -20 13q-8 -107 -9 -127q-19 -293 -31 -455q-1 -18 -12 -74q-5 -22 -16 -30t-35 -6q-11 1 -32.5 1.5t-32.5 1.5q-27 3 -35.5 15t-7.5 37q1 40 1.5 85t1 99t0.5 84q3 312 44 569q4 25 13.5 34t34.5 11q62 5 100 -15.5t62 -72.5q17 -36 101 -183q42 36 61 54
q106 100 158 150q25 23 81.5 22t78.5 -24q26 -26 17 -87q-20 -149 -25 -365z" />
    <glyph glyph-name="n" unicode="n" horiz-adv-x="676" 
d="M671 616q-2 -47 -8.5 -194.5t-11.5 -228.5q-2 -28 -14 -157q-8 -107 -14 -163q-3 -36 -14 -49t-45 -21q-27 -5 -34 -5q-43 -2 -43 41q0 36 1 76t2.5 88.5t2.5 75.5q1 4 1 12t1 12q8 90 -44 155q-123 150 -193 280q-1 4 -10 15q0 1 -11 13l-9 -2q-1 -16 -7.5 -87.5
t-8.5 -107.5q-3 -26 -6.5 -79t-5.5 -79q-1 -10 -30 -301q-4 -30 -11 -43q-12 -25 -28 -26q-64 -4 -105 1q-15 2 -23 13.5t-4 28.5q3 11 3 47q0 9 1 78t1 83.5t1 76.5t1.5 83t2 76.5t3 83t3.5 76.5t4.5 83.5t6 76.5t7.5 81q1 3 1 9v8v4q0 5 4 13q16 27 33 32q59 18 128 -10
q37 -15 36 -53q-2 -21 12 -38q23 -31 66.5 -86.5t59.5 -76.5q26 -33 31 -43q14 -31 43 -65q48 -56 51 -59q2 5 4 7q0 1 1 3t1 3q8 111 24 335q2 34 15.5 48.5t45.5 16.5q4 0 12 1t12 1q36 0 51 -15.5t14 -51.5q-1 -18 -3.5 -51.5t-3.5 -44.5z" />
    <glyph glyph-name="o" unicode="o" horiz-adv-x="683" 
d="M450 618q-13 37 -42.5 42t-57.5 -24q-27 -28 -50 -68q-74 -129 -72 -323v-60q5 -110 38 -190q18 -46 58.5 -52t66.5 34q55 82 69 138q43 175 25 358q-8 75 -35 145zM583 17q-38 -104 -126 -180q-39 -34 -110 -38t-116 23q-6 4 -8 6q-6 4 -8 5q-92 45 -134 125.5
t-52 192.5q-10 104 -11 195q-2 131 82 318q10 23 38 56q5 6 22 25.5t28 33.5q19 3 54 9t60 9.5t48 4.5q81 4 139 -71q6 -9 26.5 -34t33.5 -43.5t23 -36.5q10 -17 17.5 -38t12 -35.5t9.5 -41.5t6.5 -37t5 -42.5t4.5 -38.5v-86q2 -159 -44 -281z" />
    <glyph glyph-name="p" unicode="p" horiz-adv-x="536" 
d="M305 624q-28 22 -43 31q-20 13 -47 14q-10 -60 -18 -211t-6 -243q25 15 36 20q25 15 33 21q77 68 99 99q48 66 34.5 138.5t-88.5 130.5zM454 280q-92 -60 -130 -81q-69 -38 -142 -60q-9 -43 -11 -108q0 -12 1 -49t0 -57q0 -41 -3 -61q-7 -54 -62 -63q-10 -2 -14 -3
q-58 -2 -77 16.5t-18 75.5v180t2 225q1 62 8 177.5t8 138.5q3 65 3 131q-1 35 19 50.5t52 6.5q15 -5 42.5 -12t34.5 -9q30 -9 90 -26.5t90 -26.5q26 -8 51.5 -27.5t37 -31.5t38.5 -44q95 -111 49 -248q-21 -63 -69 -94z" />
    <glyph glyph-name="q" unicode="q" horiz-adv-x="531" 
d="M294 665q-29 14 -43 -4l-30 -39q-15 -22 -19 -39q-13 -55 -28 -193q-20 -208 21 -368q15 -61 45 -101q20 11 29.5 22.5t19.5 33.5q2 4 5.5 12t5.5 12q11 23 -5 45q-8 9 -51 68q-8 11 -11 23.5t5.5 24t29.5 12.5q12 1 36 -5q22 -7 36 -11q10 55 14 76q29 157 15 304
q-10 92 -75 127zM495 -200q-44 -5 -64 24q-6 9 -20 29t-23 34q-8 -6 -14 -11.5t-11.5 -10.5t-7.5 -7q-18 -16 -34 -27q-50 -37 -120.5 -33t-106.5 47q-27 33 -39 71q-105 350 -16 665q39 133 114 198q20 18 35 20q87 11 161 -21t114 -117q119 -253 34 -569q-7 -27 -25 -66
q-18 -38 -31 -66l89 -121q-9 -36 -35 -39z" />
    <glyph glyph-name="r" unicode="r" horiz-adv-x="481" 
d="M209 710l-14 -328q70 13 109 59t42 95q9 134 -137 174zM364 352q-12 -9 -18 -15q-7 -5 -8 -10q-3 -6 3 -31q28 -111 112 -445q9 -35 -24 -47q-37 -14 -106 12q-18 7 -16 26q-1 2 -1 5q-9 43 -31 160l-36 213q-6 38 -26 56q-19 -1 -26 -9.5t-11 -28.5q-13 -66 -9 -229
q1 -30 -8 -107q-5 -37 -43 -35q-51 2 -76 5q-29 5 -35 43q-10 57 -6 140q1 15 5 64t5 75q0 4 1 18.5t0 21.5q-6 24 -4 96t3.5 96t8 95.5t8.5 95.5q6 70 6 104q2 49 22 66.5t69 13.5q16 -1 48 -2.5t57.5 -4t47.5 -6.5q78 -14 139 -62q79 -64 66 -198q-4 -53 -33.5 -92
t-83.5 -84z" />
    <glyph glyph-name="s" unicode="s" horiz-adv-x="513" 
d="M443 537q-29 -17 -55 2q-27 19 -15 51q16 39 3 83q-12 42 -50 24q-35 -17 -43 -48q-3 -14 -7.5 -43.5t-6.5 -44.5q14 -67 16 -72q13 -36 41 -103t34 -81q84 -209 92 -232q41 -119 -47 -214q-56 -63 -166 -61q-98 1 -159 104q-64 112 -49 238q7 56 42 89q18 16 41.5 19.5
t44.5 -6.5q16 -8 19 -23t-9 -26q-35 -30 -35 -87q-2 -78 26 -124q26 -40 75 -40q43 1 58 47q14 34 14 70q0 83 -47 167q-36 65 -115 222q-8 16 -28 64q-22 64 -2 139.5t63 113.5q59 50 139 33q128 -29 168 -131q13 -31 -1 -72.5t-41 -57.5z" />
    <glyph glyph-name="t" unicode="t" horiz-adv-x="454" 
d="M433 699q-14 -9 -51 -18q-8 -1 -25 -1h-12.5t-12.5 -1q-22 -1 -28 -7.5t-7 -29.5q-1 -26 -4 -71.5t-5 -83.5t-3 -72l-15 -294q-1 -15 -5 -41.5t-5 -35.5q-1 -6 -18 -185q-4 -45 -33 -52q-30 -8 -46 -9q-24 -2 -47 14q-15 11 -13 31v11q6 112 9 184q9 255 27 515
q1 18 5.5 52t5.5 47q2 23 -4 30t-28 10q-43 8 -80 11q-36 3 -40 34q-2 14 13.5 37t28.5 25q36 4 55 3l213 -12q34 -1 81 4q47 7 63 -24q7 -13 1 -38t-20 -33z" />
    <glyph glyph-name="u" unicode="u" horiz-adv-x="574" 
d="M557 155q-24 -142 -110 -257q-58 -76 -138.5 -94.5t-168.5 22.5q-44 19 -70 77q-34 71 -58 192q-14 76 -14 161q0 28 5 160q2 34 3.5 102.5t2.5 103.5q5 74 16 140q1 11 10 18.5t15 8.5q31 12 72 8q16 -1 79 -13q4 -17 5 -18q1 -3 1 -12q0 -3 -0.5 -7.5t-0.5 -6.5
q-2 -23 -8.5 -81.5t-9.5 -101t-3 -82.5q0 -10 0.5 -47.5t1 -50t1 -47t1.5 -50.5t2.5 -46.5t4 -50t5.5 -46t7 -50t9 -46.5q2 -11 33 -111q54 27 80 61.5t42 84.5q44 137 49 341q1 33 0.5 115.5t-0.5 115.5q0 50 9 100q7 32 21 44t41 10q30 -3 53 -23t24 -47q7 -193 7 -231
q0 -231 -19 -346z" />
    <glyph glyph-name="v" unicode="v" horiz-adv-x="675" 
d="M586 597q-32 -85 -72 -298q-6 -34 -27.5 -98t-24.5 -74q-4 -14 -11.5 -41.5t-11.5 -39.5q-47 -173 -56 -198q-11 -31 -29.5 -41t-55.5 -9q-31 1 -42 28q-4 10 -22.5 56.5t-26.5 72.5q-7 22 -35 117t-47 145q-59 158 -97 346q-5 24 -28 169q-7 6 -11 13t0.5 15t19.5 14
q68 26 96 28q28 1 41.5 -12t18.5 -44q37 -219 46 -266q5 -25 19.5 -71t18.5 -61q10 -38 29 -108.5t27 -100.5q1 -3 6 -12q1 -1 10 -17l42 192q42 197 68 310q18 83 36 138q3 9 14 17.5t22 10.5q41 9 89 7q22 -1 31 -18t1 -44q-29 -101 -38 -126z" />
    <glyph glyph-name="w" unicode="w" horiz-adv-x="1026" 
d="M887 387q-98 -246 -159 -387q-11 -26 -25.5 -54t-33.5 -62.5t-28 -52.5q-19 -34 -47 -33q-32 3 -44 37q-25 63 -42 124q-14 46 -37 130.5t-31 113.5q-2 4 -4 7l-5 9q-86 -161 -119 -222q-28 -53 -48 -79q-24 -31 -52 -26t-39 43q-26 86 -49 188q-36 165 -73 353
q-10 49 -26 138.5t-21 115.5q-2 6 -2 9q-6 32 5 45t43 15q57 3 58 3q35 1 48.5 -10t17.5 -45q3 -22 9 -66.5t10 -67.5q19 -122 59 -366q5 -32 20 -96q18 21 25 34q2 5 8 18t9 20q42 84 50 101q20 43 88 66q55 20 74 -39q13 -38 37 -116t37 -116q4 -8 11 -25q12 22 13 25
q8 13 12 23q26 74 79 220t80 220q11 30 15 61q9 47 40.5 64t75.5 -3q4 -2 11 -5t11 -4q27 -11 33.5 -27.5t-4.5 -44.5q-14 -37 -44 -116t-46 -120z" />
    <glyph glyph-name="x" unicode="x" horiz-adv-x="654" 
d="M448 364q-62 -107 -64 -110q-8 -15 2 -38q15 -42 52 -142.5t56 -154.5q12 -33 10 -80q-3 -40 -50 -40q-7 0 -21 -0.5t-21 -0.5q-31 1 -46.5 14t-24.5 44q-4 14 -61 192l-11 1q-30 -56 -36 -68q-3 -5 -21 -37t-25 -50q-23 -58 -92 -66q-25 -3 -52 -3q-38 0 -39 36
q0 7 -6 32q17 32 44 84.5t31 59.5q43 79 80 134q62 91 24 216q-34 112 -102 334q-8 22 -0.5 41.5t29.5 25.5q27 8 84 8q20 0 28 -19q0 -1 1.5 -6t2.5 -8q34 -128 46 -169q10 -33 32 -101l9 -1q28 40 32 47q101 165 120 203q37 76 116 55q6 -2 20.5 -4t21.5 -5
q29 -12 37 -35.5t-8 -50.5q-38 -66 -109 -186.5t-89 -151.5z" />
    <glyph glyph-name="y" unicode="y" horiz-adv-x="621" 
d="M635 675q-5 -8 -17 -24q-171 -252 -215 -319q-38 -58 -41 -118q-2 -78 -18 -307q-1 -18 -1 -54q0 -60 -59 -54q-44 3 -87 12q-41 7 -38 53q14 224 22 336q4 69 13 102q10 42 -17 85q-108 170 -154 289q-12 27 -22 65q-9 36 26 52q43 18 92 1q15 -5 31 -36q12 -25 45 -99
t53 -114q11 -25 26 -49q15 -22 39 -43q12 15 14 17q1 2 5 7.5t6 8.5q17 29 68.5 121.5t80.5 142.5q12 24 32 29q62 14 96 12q29 -2 40.5 -31.5t-4.5 -59.5q-4 -9 -16 -25z" />
    <glyph glyph-name="z" unicode="z" 
d="M492 -202q-88 6 -266 12q-45 2 -81 -1q-2 0 -24.5 -1.5t-33.5 -1.5q-33 2 -58 16q-39 25 -28 61q2 5 4 17t5 18q94 229 118 284q22 51 167 375l48 106h-105q-44 -3 -69 30q-20 25 -1 70q10 25 51 17q29 -5 114.5 -20t132.5 -24q37 -7 46 -26t-6 -53
q-15 -38 -110.5 -243.5t-128.5 -322.5q-14 -50 -57 -174q137 -9 143 -9q31 -1 92 -2.5t92 -3.5q30 -1 41 -15t20 -51q-34 -61 -106 -58z" />
    <glyph glyph-name="braceleft" unicode="{" horiz-adv-x="328" 
d="M305 720q-49 -17 -53 -84q-4 -106 2 -145q17 -99 -58 -197q41 -60 21 -132q-2 -7 -12.5 -44t-14.5 -56q-11 -54 -12 -91q-3 -47 33 -77q23 -21 30 -59q2 -8 0 -16q-3 -12 -13.5 -17.5t-21.5 -1.5q-69 22 -110 46q-55 30 -53 99q2 70 15 122q19 80 9 152q-5 39 -32 57
q-8 5 -38 43q14 6 23.5 10t11.5 5t3 1q37 14 52 33.5t17 59.5q1 32 3.5 95t3.5 94q1 6 2 17.5t1 17.5q9 99 118 146q26 10 50 -5q22 -14 32 -21q30 -20 4 -43q-6 -6 -13 -9z" />
    <glyph glyph-name="bar" unicode="|" horiz-adv-x="132" 
d="M123 674q-3 -112 -3 -225q1 -107 7 -326q0 -17 2.5 -88.5t2.5 -102t-0.5 -84t-4.5 -97.5q-1 -30 -17 -63q-24 -52 -61 -37q-14 7 -21.5 29t-6.5 49q6 268 -13 641q-15 329 -8 512q1 41 35 59q28 17 62 -10q5 -3 17 -13q25 -18 19 -76q-6 -45 -10 -168z" />
    <glyph glyph-name="braceright" unicode="}" horiz-adv-x="256" 
d="M233 250q-29 -10 -38.5 -30.5t-10.5 -53.5q-1 -30 1 -85t2 -79q2 -92 -34 -152q-16 -25 -42 -32q-21 -6 -33 -14q-15 -8 -30 -5t-27 16.5t-18.5 30t-4.5 34.5t14 30q11 11 34 15q41 7 47 41q4 42 -1 62q-27 91 -18 185q7 62 34 103q-22 50 -31 74q-11 29 4 60
q44 97 53 119q25 58 -8 96q-22 24 -44 32q-39 14 -48 33t7 69q117 15 160 -89q30 -74 18 -158q-11 -86 -18 -167q-5 -49 36 -74q22 -15 20 -34t-24 -27z" />
    <glyph glyph-name="quotedblleft" unicode="&#x201c;" horiz-adv-x="325" 
d="M269 537q-2 -4 -6.5 -13.5t-8.5 -16t-9 -9.5q-18 -7 -41 10q-9 7 -18 36q-5 17 -16 58.5t-18 63.5q-8 24 -6 35t17 25q3 3 10 8.5t11 8.5q31 26 42 -23q6 -30 26 -116q2 -9 8 -31t9 -36zM131 510q-40 0 -53 52q-3 11 -8 41t-11 50.5t-15 38.5q-3 7 -2 20t5 17
q25 19 46 22q3 0 5.5 -0.5t5 -2.5t4 -4t3 -6t2 -6.5t2 -7t2.5 -6.5q15 -48 47 -142q9 -26 -1 -46t-32 -20z" />
    <glyph glyph-name="quotedblright" unicode="&#x201d;" horiz-adv-x="325" 
d="M205 510q-22 0 -32 20t-1 46q32 94 47 142q1 2 2 6l1.5 6t2 5.5t2.5 5.5t3 4.5t3.5 3.5t4 1.5t5.5 0.5q21 -3 46 -22q4 -4 5 -17t-2 -20q-9 -18 -15 -38.5t-11 -50.5t-8 -41q-13 -52 -53 -52zM67 537q3 14 9 36t8 31q20 86 26 116q11 49 42 23q3 -3 10 -8.5t11 -8.5
q15 -14 17 -25t-6 -35q-7 -22 -18 -63.5t-16 -58.5q-9 -29 -18 -36q-23 -17 -41 -10q-5 3 -9 9.5t-8.5 16t-6.5 13.5z" />
    </font>
</defs>
</svg>
